PathFileType	4	(X/Y/Z)	/Users/itak/Documents/Research/Walk-IL/dataset/trc/00509_00183.trc
DataRate	CameraRate	NumFrames	NumMarkers	Units	OrigDataRate	OrigDataStartFrame	OrigNumFrames
100.000000	100.000000	4	53	mm	100.000000	320	366
Frame#	Time	RPSI			LPSI			L3			STRN			T10			C7			CLAV			RBAK			LBAK			LSHO			LUPA			LAEL			LAOL			LWTS			LWPS			LFRA			LIFD			LHPS			LHTS			RSHO			RUPA			RAEL			RAOL			RWTS			RWPS			RFRA			RIFD			RHTS			RHPS			RBHD			LFHD			RFHD			LBHD			LHIP			RHIP			RASI			LASI			LKNE			LTHI			LANK			LTIP			LTOE			LMT1			LMT5			LHEE			RKNE			RTHI			RANK			RTIP			RTOE			RMT1			RMT5			RHEE			
		X1	Y1	Z1	X2	Y2	Z2	X3	Y3	Z3	X4	Y4	Z4	X5	Y5	Z5	X6	Y6	Z6	X7	Y7	Z7	X8	Y8	Z8	X9	Y9	Z9	X10	Y10	Z10	X11	Y11	Z11	X12	Y12	Z12	X13	Y13	Z13	X14	Y14	Z14	X15	Y15	Z15	X16	Y16	Z16	X17	Y17	Z17	X18	Y18	Z18	X19	Y19	Z19	X20	Y20	Z20	X21	Y21	Z21	X22	Y22	Z22	X23	Y23	Z23	X24	Y24	Z24	X25	Y25	Z25	X26	Y26	Z26	X27	Y27	Z27	X28	Y28	Z28	X29	Y29	Z29	X30	Y30	Z30	X31	Y31	Z31	X32	Y32	Z32	X33	Y33	Z33	X34	Y34	Z34	X35	Y35	Z35	X36	Y36	Z36	X37	Y37	Z37	X38	Y38	Z38	X39	Y39	Z39	X40	Y40	Z40	X41	Y41	Z41	X42	Y42	Z42	X43	Y43	Z43	X44	Y44	Z44	X45	Y45	Z45	X46	Y46	Z46	X47	Y47	Z47	X48	Y48	Z48	X49	Y49	Z49	X50	Y50	Z50	X51	Y51	Z51	X52	Y52	Z52	X53	Y53	Z53	

321	3.2	1301.397583007812	948.0322265625	1061.608154296875	1361.85400390625	946.1427001953125	953.92041015625	1330.376098632812	1021.7685546875	999.3958740234375	1517.455200195312	1197.386352539062	1080.535522460938	1313.402099609375	1124.343872070312	989.9893188476562	1341.354248046875	1357.072387695312	991.0263671875	1481.215942382812	1289.523071289062	1058.868041992188	1267.351684570312	1235.8974609375	1058.166015625	1356.854370117188	1296.173828125	907.1298217773438	1472.0537109375	1342.281127929688	875.0192260742188	1486.593627929688	1212.9912109375	822.3786010742188	1514.293090820312	1014.615173339844	816.7416381835938	1421.126708984375	989.8792724609375	847.2029418945312	1654.207885742188	943.0537109375	939.2379760742188	1634.902954101562	855.33984375	911.361572265625	1560.165405273438	969.6646118164062	844.7222900390625	1733.820556640625	850.2271118164062	1029.306640625	1682.069702148438	836.7379150390625	940.8530883789062	1712.809448242188	891.9249267578125	959.1220092773438	1327.441528320312	1360.466552734375	1147.72607421875	1286.476196289062	1298.612548828125	1195.410766601562	1260.11279296875	1038.256591796875	1263.579223632812	1223.253051757812	1022.308044433594	1210.473999023438	1351.49072265625	838.2958984375	1295.869384765625	1263.221313476562	821.5037841796875	1301.621826171875	1258.5361328125	985.2606811523438	1275.198364257812	1340.544921875	679.6383056640625	1318.773315429688	1347.086181640625	750.4533081054688	1337.344848632812	1277.630981445312	751.54443359375	1324.618408203125	1309.326049804688	1499.536010742188	1052.732543945312	1476.62451171875	1596.282958984375	1000.074035644531	1400.899658203125	1590.506469726562	1101.245727539062	1393.990966796875	1497.855590820312	918.554443359375	1526.547729492188	885.1766357421875	896.291015625	1338.050903320312	857.4082641601562	1224.957153320312	1451.793090820312	910.7599487304688	1211.789428710938	1566.9443359375	930.7844848632812	1000.783142089844	1616.98095703125	479.1390991210938	992.0611572265625	1598.395629882812	633.9033813476562	954.1390991210938	1503.42431640625	58.17564010620117	890.2622680664062	1588.032348632812	337.8447875976562	954.456787109375	1629.094360351562	35.86872100830078	1046.057495117188	1550.343994140625	41.43363952636719	1033.148559570312	1596.843994140625	36.26140213012695	940.9769287109375	1431.140380859375	58.12194442749023	916.4932861328125	1406.704956054688	471.3707885742188	1202.225952148438	1374.696655273438	731.5255737304688	1240.641357421875	1358.485961914062	40.73787689208984	1131.85107421875	1422.599731445312	325.4773559570312	1181.325561523438	1554.2724609375	25.55060577392578	1188.27197265625	1513.484497070312	29.95602035522461	1122.978393554688	1450.912475585938	30.60740852355957	1198.110717773438	1331.299194335938	30.1652889251709	1067.98291015625	
322	3.21	1305.882568359375	949.3404541015625	1062.869506835938	1366.815063476562	947.1224365234375	955.2359008789062	1335.124267578125	1022.372741699219	1000.246459960938	1521.862060546875	1197.914672851562	1082.387084960938	1318.35986328125	1124.828369140625	990.944091796875	1345.983276367188	1357.6640625	992.5191040039062	1485.640014648438	1290.1142578125	1060.745483398438	1271.730102539062	1236.292114257812	1059.025634765625	1361.829711914062	1296.986206054688	908.5698852539062	1477.042236328125	1343.268676757812	877.0020751953125	1491.009643554688	1214.223999023438	823.9295654296875	1516.492065429688	1015.156372070312	817.330810546875	1423.0634765625	991.9142456054688	848.249755859375	1655.477172851562	938.7531127929688	938.5543212890625	1634.374633789062	852.0764770507812	908.776611328125	1561.644409179688	968.917724609375	844.59130859375	1732.835571289062	842.1315307617188	1026.802612304688	1681.105102539062	831.89013671875	937.9915161132812	1712.894287109375	885.8792724609375	957.5940551757812	1331.309326171875	1360.637573242188	1148.973022460938	1290.11328125	1298.767822265625	1196.408813476562	1264.24755859375	1038.342407226562	1264.849487304688	1227.890747070312	1021.986877441406	1211.53515625	1357.858520507812	839.7977905273438	1297.93359375	1269.91455078125	821.8935546875	1303.904418945312	1263.038330078125	985.3639526367188	1276.585815429688	1349.764770507812	681.7742919921875	1323.232666015625	1354.820556640625	752.70458984375	1340.771484375	1285.422485351562	752.4515380859375	1327.939208984375	1314.105346679688	1500.418212890625	1055.079467773438	1481.637817382812	1596.692993164062	1002.366516113281	1406.1015625	1590.909057617188	1103.7265625	1398.48291015625	1498.776977539062	920.732421875	1531.40283203125	885.1746215820312	898.302978515625	1341.725341796875	858.6463623046875	1226.39306640625	1455.71533203125	911.2852783203125	1213.347290039062	1571.930419921875	930.7584838867188	1002.849060058594	1618.2099609375	478.3093566894531	992.29296875	1601.483032226562	633.5708618164062	955.2999877929688	1502.790893554688	57.52272415161133	890.8668212890625	1588.45849609375	337.0421447753906	954.668212890625	1629.125244140625	35.08263778686523	1046.347778320312	1550.330200195312	40.83988189697266	1033.470092773438	1596.415893554688	35.90431976318359	941.3727416992188	1430.639404296875	57.55696868896484	917.2836303710938	1406.236694335938	471.8435363769531	1203.254638671875	1377.326904296875	732.6204833984375	1242.33251953125	1358.421630859375	40.92242050170898	1131.9150390625	1421.573852539062	325.9976806640625	1181.834350585938	1554.210327148438	25.58542442321777	1188.327270507812	1513.447387695312	30.24378395080566	1123.210815429688	1450.822631835938	30.62642860412598	1198.28857421875	1331.426147460938	30.75860404968262	1067.906616210938	
323	3.22	1310.32275390625	950.5264282226562	1064.01953125	1371.709838867188	948.097412109375	956.470947265625	1339.806396484375	1022.9541015625	1000.966857910156	1526.15185546875	1198.4296875	1084.218872070312	1323.272094726562	1125.266967773438	991.7594604492188	1350.542724609375	1358.221557617188	993.86083984375	1489.968017578125	1290.6904296875	1062.573608398438	1276.019653320312	1236.6513671875	1059.670776367188	1366.814575195312	1297.7822265625	909.855712890625	1482.043334960938	1344.265380859375	878.9223022460938	1495.54052734375	1215.48291015625	825.42041015625	1518.832885742188	1015.854248046875	817.9127807617188	1425.178955078125	993.9675903320312	849.177490234375	1656.674072265625	934.78125	938.09912109375	1634.029052734375	849.2178955078125	906.2543334960938	1563.274658203125	968.4103393554688	844.5103759765625	1731.5810546875	834.4292602539062	1024.561645507812	1680.217407226562	827.4999389648438	935.2662353515625	1712.911010742188	880.262939453125	956.3619995117188	1335.014404296875	1360.783935546875	1150.072265625	1293.53955078125	1298.87158203125	1197.193969726562	1268.026977539062	1038.344482421875	1265.672119140625	1232.232177734375	1021.561889648438	1212.128295898438	1363.948974609375	841.43212890625	1300.056762695312	1276.30859375	822.220703125	1305.73583984375	1267.197631835938	985.4008178710938	1277.560546875	1358.792602539062	684.0572509765625	1327.356323242188	1362.179077148438	754.8968505859375	1343.962036132812	1292.86279296875	753.2073974609375	1330.682250976562	1318.7666015625	1501.264770507812	1057.312622070312	1486.530395507812	1597.09814453125	1004.611083984375	1411.140869140625	1591.265502929688	1106.114013671875	1402.88427734375	1499.724975585938	922.8069458007812	1536.166137695312	885.1607666015625	900.1993408203125	1345.434936523438	859.8732299804688	1227.8642578125	1459.630981445312	911.7940673828125	1214.886840820312	1576.8369140625	930.734130859375	1004.85888671875	1619.089721679688	477.4814758300781	992.083251953125	1604.424438476562	633.2875366210938	956.243896484375	1501.617431640625	56.8290901184082	891.37158203125	1588.396484375	336.2374877929688	954.486083984375	1628.966552734375	34.35970306396484	1046.31494140625	1550.081420898438	40.31170272827148	1033.619506835938	1595.568115234375	35.60837173461914	941.526123046875	1429.66064453125	56.96477890014648	918.1189575195312	1405.708740234375	472.3553771972656	1203.909545898438	1380.08740234375	733.7027587890625	1244.022583007812	1358.3681640625	41.0764045715332	1131.877807617188	1420.590576171875	326.5785827636719	1182.23291015625	1554.154907226562	25.6208610534668	1188.3818359375	1513.44091796875	30.55135345458984	1123.424560546875	1450.7724609375	30.68576049804688	1198.43408203125	1331.593872070312	31.34124183654785	1067.750732421875	
324	3.23	1314.71875	951.5814208984375	1065.031494140625	1376.560791015625	949.0292358398438	957.6735229492188	1344.41650390625	1023.506958007812	1001.616088867188	1530.333618164062	1198.899536132812	1086.0361328125	1328.100830078125	1125.650146484375	992.4512329101562	1355.036743164062	1358.730590820312	995.0772705078125	1494.207397460938	1291.218872070312	1064.359252929688	1280.220336914062	1236.968505859375	1060.128662109375	1371.79638671875	1298.532592773438	911.026611328125	1487.048950195312	1345.235107421875	880.7886352539062	1500.143920898438	1216.725708007812	826.855224609375	1521.326293945312	1016.616149902344	818.47265625	1427.473022460938	995.9779663085938	849.99755859375	1657.849365234375	931.0654296875	937.7855834960938	1633.828247070312	846.648681640625	903.8539428710938	1565.05859375	968.0301513671875	844.4666748046875	1730.206787109375	827.1605834960938	1022.507507324219	1679.418701171875	823.4749755859375	932.7075805664062	1712.9189453125	875.0135498046875	955.3102416992188	1338.586669921875	1360.892700195312	1151.058349609375	1296.801391601562	1298.908447265625	1197.804931640625	1271.520141601562	1038.242065429688	1266.111450195312	1236.353637695312	1021.012329101562	1212.350830078125	1369.7822265625	843.0966186523438	1302.219848632812	1282.416748046875	822.4640502929688	1307.170288085938	1271.081665039062	985.3336181640625	1278.188720703125	1367.436645507812	686.3117065429688	1331.054321289062	1369.147216796875	756.978271484375	1346.9267578125	1299.9208984375	753.809814453125	1332.88671875	1323.318603515625	1502.044799804688	1059.431640625	1491.3056640625	1597.47802734375	1006.807006835938	1416.0244140625	1591.555786132812	1108.403076171875	1407.207763671875	1500.665405273438	924.7879638671875	1540.842529296875	885.1259155273438	902.0299072265625	1349.142333984375	861.0343017578125	1229.331665039062	1463.494140625	912.2177124023438	1216.395141601562	1581.65625	930.6826171875	1006.832336425781	1619.626220703125	476.6557006835938	991.4559936523438	1607.201171875	633.0143432617188	956.933349609375	1500.16064453125	56.02908706665039	891.8325805664062	1587.960693359375	335.3937683105469	953.9520263671875	1628.80859375	33.67416763305664	1046.0732421875	1549.76123046875	39.82306289672852	1033.682373046875	1594.531494140625	35.33380126953125	941.5303955078125	1428.438110351562	56.27651596069336	919.0097045898438	1405.257202148438	472.8919677734375	1204.277587890625	1382.918212890625	734.6795043945312	1245.633422851562	1358.330078125	41.21177291870117	1131.768676757812	1419.764282226562	327.201904296875	1182.548706054688	1554.10986328125	25.65480422973633	1188.432983398438	1513.45849609375	30.86599731445312	1123.613403320312	1450.751831054688	30.76151084899902	1198.540893554688	1331.785766601562	31.90615081787109	1067.550048828125	
